<?xml version="1.0" encoding="UTF-8" standalone="no"?>
<!DOCTYPE svg PUBLIC "-//W3C//DTD SVG 1.1//EN" "http://www.w3.org/Graphics/SVG/1.1/DTD/svg11.dtd">
<svg width="100%" height="100%" viewBox="0 0 301 179" version="1.1" xmlns="http://www.w3.org/2000/svg" xmlns:xlink="http://www.w3.org/1999/xlink" xml:space="preserve" xmlns:serif="http://www.serif.com/" style="fill-rule:evenodd;clip-rule:evenodd;stroke-linejoin:round;stroke-miterlimit:2;">
    <g transform="matrix(1,0,0,1,-599.974,-435.764)">
        <g transform="matrix(0.519569,0,0,0.519569,360.323,275.754)">
            <g transform="matrix(0.97455,0,0,0.97455,41.2754,13.2736)">
                <path d="M467.129,654.859C408.236,622.51 430.864,566.054 466.997,521.609C485.716,498.583 511.103,475.702 526.511,464.146C534.545,458.121 546.321,448.827 556.269,443.624C604.623,418.335 667.578,414.298 720,410C821.871,401.648 863.747,443.776 959.532,532.951C971.184,543.799 974.569,548.675 987.237,562.653C1016.99,595.489 1047.8,645.62 994.42,654.859L467.129,654.859Z" style="fill:rgb(217,83,79);"/>
            </g>
            <g transform="matrix(1,0,0,1,-0.505714,-4.37632)">
                <path d="M608,313C611.667,311.333 625.333,320.5 632,324C637.569,326.923 642.891,330.332 648,334C654.5,338.667 664.833,347.667 671,352C675.398,355.09 680.224,357.535 685,360C690.167,362.667 696.304,365.396 702,368C707.833,370.667 716.167,374.333 720,376C721.646,376.716 723.333,377.833 725,378C726.667,378.167 728.422,377.631 730,377C732.5,376 736.748,373.821 740,372C744.167,369.667 750.667,365.667 755,363C758.701,360.722 762.333,358.333 766,356C769.667,353.667 773.384,351.411 777,349C781,346.333 785.69,343.033 790,340C794.5,336.833 799.155,333.068 804,330C809,326.833 815.333,323.167 820,321C823.824,319.224 827.984,318.285 832,317C836.167,315.667 842.167,313.667 845,313C846.298,312.695 848.761,311.688 849,313C849.333,314.833 847.679,320.336 847,324C846.167,328.5 845.634,334.826 844,340C842,346.333 838,355.5 835,362C832.313,367.822 829,373.667 826,379C823.141,384.082 820.167,389.5 817,394C815.12,396.672 813,399.469 810.607,401.965C809.188,403.446 806.987,404.821 807.607,406C809.274,409.167 820.424,411.003 827,413C835.232,415.5 847.667,418.833 857,421C865.597,422.996 874.667,424.167 883,426C891.054,427.772 899.667,429.667 907,432C913.842,434.177 920.833,437 927,440C932.912,442.876 940.836,448.003 944,450C944.791,450.499 946.536,451.229 945.984,451.984C945.252,452.984 941.906,454.988 939.607,456C934.932,458.059 929.418,461.713 920.607,465.102C917.993,466.107 913.108,468.073 910.591,468.984C900.922,472.481 889.049,475.307 877.984,476.984C865.882,478.817 850.148,479.65 837.984,479.984C826.988,480.285 814.495,479.817 805,478.984C796.926,478.275 788.939,476.693 781.016,474.984C772.519,473.15 762.019,470.317 754.016,467.984C746.928,465.917 737.003,462.317 733,460.984C732,460.65 731.024,460.232 730,459.984C728.626,459.65 726.528,458.823 724.756,458.984C722.92,459.15 720.958,460.486 718.984,460.984C714.355,462.15 704.468,465.25 696.984,465.984C688.484,466.817 677.481,466.484 667.984,465.984C658.615,465.49 648.333,464.15 640,462.984C632.613,461.949 625.15,460.817 617.984,458.984C610.84,457.156 603.661,454.817 597,451.984C590.418,449.184 582.68,444.65 578.016,441.984C574.886,440.194 570.352,437.481 569.016,435.984C568.319,435.202 569.148,433.608 570,433C572.331,431.336 578.598,428.201 583,426C588.667,423.167 597,418.5 604,416C610.776,413.58 619,412.5 625,411C630.02,409.745 636.5,408 640,407C642.027,406.421 645,405.667 646,405C646.555,404.63 646.382,403.546 646,403C644.833,401.333 641.184,397.79 639,395C636,391.167 631.166,385.331 628,380C624.833,374.667 622.5,368.667 620,363C617.526,357.393 614.667,350.833 613,346C611.656,342.102 610.618,338.077 610,334C609.167,328.5 604.333,314.667 608,313Z" style="fill:rgb(92,184,92);"/>
            </g>
        </g>
    </g>
</svg>
